# xmcd CD database file
# Copyright (C) 1995-1998 Ti Kan
#
# Track frame offsets:
#	150
#	12900
#	25727
#	39827
#	53702
#	67720
#	81077
#	94100
#	108137
#	121210
#	132745
#	145277
#	159580
#	170907
#
# Disc length: 2465 seconds
#
# Revision: 1
# Processed by: cddbd v1.4b41PL3 Copyright (c) Steve Scherf et al.
# Submitted via: CDex 1.30Release
#
DISCID=b0099f0e
DTITLE=Bix Beiderbecke - Singin' the Blues
DYEAR=1930
DGENRE=Blues
TTITLE0=Singin' the Blues
TTITLE1=Way Down Yonder in New Orleans
TTITLE2=I'm Comin' Virginia
TTITLE3=Ostrich Walk
TTITLE4=Riverboat Shuffle
TTITLE5=Three Blind Mice
TTITLE6=Sorry
TTITLE7=Sugar
TTITLE8=Royal Garden Blues
TTITLE9=Tiger Rag
TTITLE10=Davenprot Blues
TTITLE11=Ol' Man River
TTITLE12=Couquette
TTITLE13=Georgia On My Mind
EXTD=YEAR: 1930 ID3G:   0
EXTT0=
EXTT1=
EXTT2=
EXTT3=
EXTT4=
EXTT5=
EXTT6=
EXTT7=
EXTT8=
EXTT9=
EXTT10=
EXTT11=
EXTT12=
EXTT13=
PLAYORDER=
